<mxfile host="localhost" modified="2020-05-14T03:29:31.577Z" agent="5.0 (Windows NT 10.0; Win64; x64) AppleWebKit/537.36 (KHTML, like Gecko) Code/1.45.0 Chrome/78.0.3904.130 Electron/7.2.4 Safari/537.36" etag="Jq8nvkKTcgfrLOPu1loz" version="13.0.9">
    <diagram id="HDc2zgOn5I5zwlkkSv_v" name="Page-1">
        <mxGraphModel dx="566" dy="432" grid="1" gridSize="10" guides="1" tooltips="1" connect="1" arrows="1" fold="1" page="1" pageScale="1" pageWidth="827" pageHeight="1169" math="0" shadow="0">
            <root>
                <mxCell id="0"/>
                <mxCell id="1" parent="0"/>
                <mxCell id="uEstjAPKd8-T_Io90Rg8-35" value="" style="endArrow=classic;startArrow=classic;html=1;exitX=1;exitY=0.5;exitDx=0;exitDy=0;entryX=0;entryY=0.5;entryDx=0;entryDy=0;" parent="1" source="uEstjAPKd8-T_Io90Rg8-29" target="uEstjAPKd8-T_Io90Rg8-31" edge="1">
                    <mxGeometry width="50" height="50" relative="1" as="geometry">
                        <mxPoint x="572.5" y="500" as="sourcePoint"/>
                        <mxPoint x="652.5" y="500" as="targetPoint"/>
                    </mxGeometry>
                </mxCell>
                <mxCell id="uEstjAPKd8-T_Io90Rg8-36" value="" style="endArrow=classic;startArrow=classic;html=1;entryX=0;entryY=0.5;entryDx=0;entryDy=0;exitX=1;exitY=0.5;exitDx=0;exitDy=0;" parent="1" source="uEstjAPKd8-T_Io90Rg8-32" target="uEstjAPKd8-T_Io90Rg8-29" edge="1">
                    <mxGeometry width="50" height="50" relative="1" as="geometry">
                        <mxPoint x="420" y="500" as="sourcePoint"/>
                        <mxPoint x="500" y="500" as="targetPoint"/>
                    </mxGeometry>
                </mxCell>
                <mxCell id="uEstjAPKd8-T_Io90Rg8-37" value="" style="endArrow=classic;startArrow=classic;html=1;entryX=0;entryY=0.5;entryDx=0;entryDy=0;" parent="1" source="uEstjAPKd8-T_Io90Rg8-30" target="uEstjAPKd8-T_Io90Rg8-34" edge="1">
                    <mxGeometry width="50" height="50" relative="1" as="geometry">
                        <mxPoint x="582.5" y="700" as="sourcePoint"/>
                        <mxPoint x="662.5" y="700" as="targetPoint"/>
                    </mxGeometry>
                </mxCell>
                <mxCell id="uEstjAPKd8-T_Io90Rg8-38" value="" style="endArrow=classic;startArrow=classic;html=1;exitX=1;exitY=0.5;exitDx=0;exitDy=0;entryX=0.5;entryY=0;entryDx=0;entryDy=0;" parent="1" source="uEstjAPKd8-T_Io90Rg8-28" target="uEstjAPKd8-T_Io90Rg8-29" edge="1">
                    <mxGeometry width="50" height="50" relative="1" as="geometry">
                        <mxPoint x="520" y="430" as="sourcePoint"/>
                        <mxPoint x="540" y="460" as="targetPoint"/>
                    </mxGeometry>
                </mxCell>
                <mxCell id="uEstjAPKd8-T_Io90Rg8-39" value="" style="endArrow=classic;startArrow=classic;html=1;entryX=0;entryY=0.5;entryDx=0;entryDy=0;exitX=1.005;exitY=0.664;exitDx=0;exitDy=0;exitPerimeter=0;" parent="1" source="uEstjAPKd8-T_Io90Rg8-32" target="uEstjAPKd8-T_Io90Rg8-30" edge="1">
                    <mxGeometry width="50" height="50" relative="1" as="geometry">
                        <mxPoint x="410" y="720" as="sourcePoint"/>
                        <mxPoint x="460" y="670" as="targetPoint"/>
                    </mxGeometry>
                </mxCell>
                <mxCell id="uEstjAPKd8-T_Io90Rg8-40" value="" style="endArrow=classic;startArrow=classic;html=1;entryX=0;entryY=0.5;entryDx=0;entryDy=0;exitX=1;exitY=0.5;exitDx=0;exitDy=0;" parent="1" source="uEstjAPKd8-T_Io90Rg8-33" target="uEstjAPKd8-T_Io90Rg8-32" edge="1">
                    <mxGeometry width="50" height="50" relative="1" as="geometry">
                        <mxPoint x="170" y="650" as="sourcePoint"/>
                        <mxPoint x="220" y="600" as="targetPoint"/>
                    </mxGeometry>
                </mxCell>
                <mxCell id="uEstjAPKd8-T_Io90Rg8-50" value="" style="group" parent="1" vertex="1" connectable="0">
                    <mxGeometry x="70" y="670" width="43.75" height="70" as="geometry"/>
                </mxCell>
                <mxCell id="uEstjAPKd8-T_Io90Rg8-33" value="" style="shape=image;verticalLabelPosition=bottom;labelBackgroundColor=#ffffff;verticalAlign=top;aspect=fixed;imageAspect=0;image=data:image/svg+xml,PHN2ZyBhcmlhLWhpZGRlbj0idHJ1ZSIgZm9jdXNhYmxlPSJmYWxzZSIgZGF0YS1wcmVmaXg9ImZhcyIgZGF0YS1pY29uPSJkYXRhYmFzZSIgY2xhc3M9InN2Zy1pbmxpbmUtLWZhIGZhLWRhdGFiYXNlIGZhLXctMTQiIHJvbGU9ImltZyIgeG1sbnM9Imh0dHA6Ly93d3cudzMub3JnLzIwMDAvc3ZnIiB2aWV3Qm94PSIwIDAgNDQ4IDUxMiI+PHBhdGggZmlsbD0iY3VycmVudENvbG9yIiBkPSJNNDQ4IDczLjE0M3Y0NS43MTRDNDQ4IDE1OS4xNDMgMzQ3LjY2NyAxOTIgMjI0IDE5MlMwIDE1OS4xNDMgMCAxMTguODU3VjczLjE0M0MwIDMyLjg1NyAxMDAuMzMzIDAgMjI0IDBzMjI0IDMyLjg1NyAyMjQgNzMuMTQzek00NDggMTc2djEwMi44NTdDNDQ4IDMxOS4xNDMgMzQ3LjY2NyAzNTIgMjI0IDM1MlMwIDMxOS4xNDMgMCAyNzguODU3VjE3NmM0OC4xMjUgMzMuMTQzIDEzNi4yMDggNDguNTcyIDIyNCA0OC41NzJTMzk5Ljg3NCAyMDkuMTQzIDQ0OCAxNzZ6bTAgMTYwdjEwMi44NTdDNDQ4IDQ3OS4xNDMgMzQ3LjY2NyA1MTIgMjI0IDUxMlMwIDQ3OS4xNDMgMCA0MzguODU3VjMzNmM0OC4xMjUgMzMuMTQzIDEzNi4yMDggNDguNTcyIDIyNCA0OC41NzJTMzk5Ljg3NCAzNjkuMTQzIDQ0OCAzMzZ6Ii8+PC9zdmc+;" parent="uEstjAPKd8-T_Io90Rg8-50" vertex="1">
                    <mxGeometry width="43.75" height="50" as="geometry"/>
                </mxCell>
                <mxCell id="uEstjAPKd8-T_Io90Rg8-47" value="資料庫" style="text;html=1;strokeColor=none;fillColor=none;align=center;verticalAlign=middle;whiteSpace=wrap;rounded=0;" parent="uEstjAPKd8-T_Io90Rg8-50" vertex="1">
                    <mxGeometry x="1.8799999999999955" y="60" width="40" height="20" as="geometry"/>
                </mxCell>
                <mxCell id="uEstjAPKd8-T_Io90Rg8-51" value="" style="group" parent="1" vertex="1" connectable="0">
                    <mxGeometry x="250" y="560" width="70" height="93" as="geometry"/>
                </mxCell>
                <mxCell id="uEstjAPKd8-T_Io90Rg8-32" value="" style="shape=image;verticalLabelPosition=bottom;labelBackgroundColor=#ffffff;verticalAlign=top;aspect=fixed;imageAspect=0;image=data:image/svg+xml,PHN2ZyBhcmlhLWhpZGRlbj0idHJ1ZSIgZm9jdXNhYmxlPSJmYWxzZSIgZGF0YS1wcmVmaXg9ImZhcyIgZGF0YS1pY29uPSJzZXJ2ZXIiIGNsYXNzPSJzdmctaW5saW5lLS1mYSBmYS1zZXJ2ZXIgZmEtdy0xNiIgcm9sZT0iaW1nIiB4bWxucz0iaHR0cDovL3d3dy53My5vcmcvMjAwMC9zdmciIHZpZXdCb3g9IjAgMCA1MTIgNTEyIj48cGF0aCBmaWxsPSJjdXJyZW50Q29sb3IiIGQ9Ik00ODAgMTYwSDMyYy0xNy42NzMgMC0zMi0xNC4zMjctMzItMzJWNjRjMC0xNy42NzMgMTQuMzI3LTMyIDMyLTMyaDQ0OGMxNy42NzMgMCAzMiAxNC4zMjcgMzIgMzJ2NjRjMCAxNy42NzMtMTQuMzI3IDMyLTMyIDMyem0tNDgtODhjLTEzLjI1NSAwLTI0IDEwLjc0NS0yNCAyNHMxMC43NDUgMjQgMjQgMjQgMjQtMTAuNzQ1IDI0LTI0LTEwLjc0NS0yNC0yNC0yNHptLTY0IDBjLTEzLjI1NSAwLTI0IDEwLjc0NS0yNCAyNHMxMC43NDUgMjQgMjQgMjQgMjQtMTAuNzQ1IDI0LTI0LTEwLjc0NS0yNC0yNC0yNHptMTEyIDI0OEgzMmMtMTcuNjczIDAtMzItMTQuMzI3LTMyLTMydi02NGMwLTE3LjY3MyAxNC4zMjctMzIgMzItMzJoNDQ4YzE3LjY3MyAwIDMyIDE0LjMyNyAzMiAzMnY2NGMwIDE3LjY3My0xNC4zMjcgMzItMzIgMzJ6bS00OC04OGMtMTMuMjU1IDAtMjQgMTAuNzQ1LTI0IDI0czEwLjc0NSAyNCAyNCAyNCAyNC0xMC43NDUgMjQtMjQtMTAuNzQ1LTI0LTI0LTI0em0tNjQgMGMtMTMuMjU1IDAtMjQgMTAuNzQ1LTI0IDI0czEwLjc0NSAyNCAyNCAyNCAyNC0xMC43NDUgMjQtMjQtMTAuNzQ1LTI0LTI0LTI0em0xMTIgMjQ4SDMyYy0xNy42NzMgMC0zMi0xNC4zMjctMzItMzJ2LTY0YzAtMTcuNjczIDE0LjMyNy0zMiAzMi0zMmg0NDhjMTcuNjczIDAgMzIgMTQuMzI3IDMyIDMydjY0YzAgMTcuNjczLTE0LjMyNyAzMi0zMiAzMnptLTQ4LTg4Yy0xMy4yNTUgMC0yNCAxMC43NDUtMjQgMjRzMTAuNzQ1IDI0IDI0IDI0IDI0LTEwLjc0NSAyNC0yNC0xMC43NDUtMjQtMjQtMjR6bS02NCAwYy0xMy4yNTUgMC0yNCAxMC43NDUtMjQgMjRzMTAuNzQ1IDI0IDI0IDI0IDI0LTEwLjc0NSAyNC0yNC0xMC43NDUtMjQtMjQtMjR6Ii8+PC9zdmc+;" parent="uEstjAPKd8-T_Io90Rg8-51" vertex="1">
                    <mxGeometry x="10" width="50" height="50" as="geometry"/>
                </mxCell>
                <mxCell id="uEstjAPKd8-T_Io90Rg8-46" value="伺服器" style="text;html=1;strokeColor=none;fillColor=none;align=center;verticalAlign=middle;whiteSpace=wrap;rounded=0;" parent="uEstjAPKd8-T_Io90Rg8-51" vertex="1">
                    <mxGeometry y="60" width="70" height="20" as="geometry"/>
                </mxCell>
                <mxCell id="uEstjAPKd8-T_Io90Rg8-53" value="" style="group" parent="1" vertex="1" connectable="0">
                    <mxGeometry x="680" y="470" width="43.75" height="70" as="geometry"/>
                </mxCell>
                <mxCell id="uEstjAPKd8-T_Io90Rg8-31" value="" style="shape=image;verticalLabelPosition=bottom;labelBackgroundColor=#ffffff;verticalAlign=top;aspect=fixed;imageAspect=0;image=data:image/svg+xml,PHN2ZyBhcmlhLWhpZGRlbj0idHJ1ZSIgZm9jdXNhYmxlPSJmYWxzZSIgZGF0YS1wcmVmaXg9ImZhcyIgZGF0YS1pY29uPSJ1c2VyIiBjbGFzcz0ic3ZnLWlubGluZS0tZmEgZmEtdXNlciBmYS13LTE0IiByb2xlPSJpbWciIHhtbG5zPSJodHRwOi8vd3d3LnczLm9yZy8yMDAwL3N2ZyIgdmlld0JveD0iMCAwIDQ0OCA1MTIiPjxwYXRoIGZpbGw9ImN1cnJlbnRDb2xvciIgZD0iTTIyNCAyNTZjNzAuNyAwIDEyOC01Ny4zIDEyOC0xMjhTMjk0LjcgMCAyMjQgMCA5NiA1Ny4zIDk2IDEyOHM1Ny4zIDEyOCAxMjggMTI4em04OS42IDMyaC0xNi43Yy0yMi4yIDEwLjItNDYuOSAxNi03Mi45IDE2cy01MC42LTUuOC03Mi45LTE2aC0xNi43QzYwLjIgMjg4IDAgMzQ4LjIgMCA0MjIuNFY0NjRjMCAyNi41IDIxLjUgNDggNDggNDhoMzUyYzI2LjUgMCA0OC0yMS41IDQ4LTQ4di00MS42YzAtNzQuMi02MC4yLTEzNC40LTEzNC40LTEzNC40eiIvPjwvc3ZnPg==;" parent="uEstjAPKd8-T_Io90Rg8-53" vertex="1">
                    <mxGeometry width="43.75" height="50" as="geometry"/>
                </mxCell>
                <mxCell id="uEstjAPKd8-T_Io90Rg8-41" value="使用者" style="text;html=1;strokeColor=none;fillColor=none;align=center;verticalAlign=middle;whiteSpace=wrap;rounded=0;" parent="uEstjAPKd8-T_Io90Rg8-53" vertex="1">
                    <mxGeometry x="1.8799999999999955" y="60" width="40" height="20" as="geometry"/>
                </mxCell>
                <mxCell id="uEstjAPKd8-T_Io90Rg8-54" value="" style="group" parent="1" vertex="1" connectable="0">
                    <mxGeometry x="680" y="670" width="43.75" height="70" as="geometry"/>
                </mxCell>
                <mxCell id="uEstjAPKd8-T_Io90Rg8-34" value="" style="shape=image;verticalLabelPosition=bottom;labelBackgroundColor=#ffffff;verticalAlign=top;aspect=fixed;imageAspect=0;image=data:image/svg+xml,PHN2ZyBhcmlhLWhpZGRlbj0idHJ1ZSIgZm9jdXNhYmxlPSJmYWxzZSIgZGF0YS1wcmVmaXg9ImZhcyIgZGF0YS1pY29uPSJ1c2VyIiBjbGFzcz0ic3ZnLWlubGluZS0tZmEgZmEtdXNlciBmYS13LTE0IiByb2xlPSJpbWciIHhtbG5zPSJodHRwOi8vd3d3LnczLm9yZy8yMDAwL3N2ZyIgdmlld0JveD0iMCAwIDQ0OCA1MTIiPjxwYXRoIGZpbGw9ImN1cnJlbnRDb2xvciIgZD0iTTIyNCAyNTZjNzAuNyAwIDEyOC01Ny4zIDEyOC0xMjhTMjk0LjcgMCAyMjQgMCA5NiA1Ny4zIDk2IDEyOHM1Ny4zIDEyOCAxMjggMTI4em04OS42IDMyaC0xNi43Yy0yMi4yIDEwLjItNDYuOSAxNi03Mi45IDE2cy01MC42LTUuOC03Mi45LTE2aC0xNi43QzYwLjIgMjg4IDAgMzQ4LjIgMCA0MjIuNFY0NjRjMCAyNi41IDIxLjUgNDggNDggNDhoMzUyYzI2LjUgMCA0OC0yMS41IDQ4LTQ4di00MS42YzAtNzQuMi02MC4yLTEzNC40LTEzNC40LTEzNC40eiIvPjwvc3ZnPg==;" parent="uEstjAPKd8-T_Io90Rg8-54" vertex="1">
                    <mxGeometry width="43.75" height="50" as="geometry"/>
                </mxCell>
                <mxCell id="uEstjAPKd8-T_Io90Rg8-42" value="管理者" style="text;html=1;strokeColor=none;fillColor=none;align=center;verticalAlign=middle;whiteSpace=wrap;rounded=0;" parent="uEstjAPKd8-T_Io90Rg8-54" vertex="1">
                    <mxGeometry x="1.8799999999999955" y="60" width="40" height="20" as="geometry"/>
                </mxCell>
                <mxCell id="uEstjAPKd8-T_Io90Rg8-56" value="" style="group" parent="1" vertex="1" connectable="0">
                    <mxGeometry x="510" y="670" width="62.5" height="70" as="geometry"/>
                </mxCell>
                <mxCell id="uEstjAPKd8-T_Io90Rg8-30" value="" style="shape=image;verticalLabelPosition=bottom;labelBackgroundColor=#ffffff;verticalAlign=top;aspect=fixed;imageAspect=0;image=data:image/svg+xml,PHN2ZyBhcmlhLWhpZGRlbj0idHJ1ZSIgZm9jdXNhYmxlPSJmYWxzZSIgZGF0YS1wcmVmaXg9ImZhcyIgZGF0YS1pY29uPSJsYXB0b3AiIGNsYXNzPSJzdmctaW5saW5lLS1mYSBmYS1sYXB0b3AgZmEtdy0yMCIgcm9sZT0iaW1nIiB4bWxucz0iaHR0cDovL3d3dy53My5vcmcvMjAwMC9zdmciIHZpZXdCb3g9IjAgMCA2NDAgNTEyIj48cGF0aCBmaWxsPSJjdXJyZW50Q29sb3IiIGQ9Ik02MjQgNDE2SDM4MS41NGMtLjc0IDE5LjgxLTE0LjcxIDMyLTMyLjc0IDMySDI4OGMtMTguNjkgMC0zMy4wMi0xNy40Ny0zMi43Ny0zMkgxNmMtOC44IDAtMTYgNy4yLTE2IDE2djE2YzAgMzUuMiAyOC44IDY0IDY0IDY0aDUxMmMzNS4yIDAgNjQtMjguOCA2NC02NHYtMTZjMC04LjgtNy4yLTE2LTE2LTE2ek01NzYgNDhjMC0yNi40LTIxLjYtNDgtNDgtNDhIMTEyQzg1LjYgMCA2NCAyMS42IDY0IDQ4djMzNmg1MTJWNDh6bS02NCAyNzJIMTI4VjY0aDM4NHYyNTZ6Ii8+PC9zdmc+;" parent="uEstjAPKd8-T_Io90Rg8-56" vertex="1">
                    <mxGeometry width="62.5" height="50" as="geometry"/>
                </mxCell>
                <mxCell id="uEstjAPKd8-T_Io90Rg8-44" value="&lt;div&gt;PC&lt;/div&gt;" style="text;html=1;strokeColor=none;fillColor=none;align=center;verticalAlign=middle;whiteSpace=wrap;rounded=0;" parent="uEstjAPKd8-T_Io90Rg8-56" vertex="1">
                    <mxGeometry x="10.25" y="60" width="40" height="20" as="geometry"/>
                </mxCell>
                <mxCell id="uEstjAPKd8-T_Io90Rg8-57" value="" style="group" parent="1" vertex="1" connectable="0">
                    <mxGeometry x="521.24" y="470" width="40" height="70" as="geometry"/>
                </mxCell>
                <mxCell id="uEstjAPKd8-T_Io90Rg8-29" value="" style="shape=image;verticalLabelPosition=bottom;labelBackgroundColor=#ffffff;verticalAlign=top;aspect=fixed;imageAspect=0;image=data:image/svg+xml,PHN2ZyBhcmlhLWhpZGRlbj0idHJ1ZSIgZm9jdXNhYmxlPSJmYWxzZSIgZGF0YS1wcmVmaXg9ImZhcyIgZGF0YS1pY29uPSJtb2JpbGUtYWx0IiBjbGFzcz0ic3ZnLWlubGluZS0tZmEgZmEtbW9iaWxlLWFsdCBmYS13LTEwIiByb2xlPSJpbWciIHhtbG5zPSJodHRwOi8vd3d3LnczLm9yZy8yMDAwL3N2ZyIgdmlld0JveD0iMCAwIDMyMCA1MTIiPjxwYXRoIGZpbGw9ImN1cnJlbnRDb2xvciIgZD0iTTI3MiAwSDQ4QzIxLjUgMCAwIDIxLjUgMCA0OHY0MTZjMCAyNi41IDIxLjUgNDggNDggNDhoMjI0YzI2LjUgMCA0OC0yMS41IDQ4LTQ4VjQ4YzAtMjYuNS0yMS41LTQ4LTQ4LTQ4ek0xNjAgNDgwYy0xNy43IDAtMzItMTQuMy0zMi0zMnMxNC4zLTMyIDMyLTMyIDMyIDE0LjMgMzIgMzItMTQuMyAzMi0zMiAzMnptMTEyLTEwOGMwIDYuNi01LjQgMTItMTIgMTJINjBjLTYuNiAwLTEyLTUuNC0xMi0xMlY2MGMwLTYuNiA1LjQtMTIgMTItMTJoMjAwYzYuNiAwIDEyIDUuNCAxMiAxMnYzMTJ6Ii8+PC9zdmc+;" parent="uEstjAPKd8-T_Io90Rg8-57" vertex="1">
                    <mxGeometry x="4.3799999999999955" width="31.25" height="50" as="geometry"/>
                </mxCell>
                <mxCell id="uEstjAPKd8-T_Io90Rg8-43" value="手機" style="text;html=1;strokeColor=none;fillColor=none;align=center;verticalAlign=middle;whiteSpace=wrap;rounded=0;" parent="uEstjAPKd8-T_Io90Rg8-57" vertex="1">
                    <mxGeometry y="60" width="40" height="20" as="geometry"/>
                </mxCell>
                <mxCell id="uEstjAPKd8-T_Io90Rg8-60" value="" style="group" parent="1" vertex="1" connectable="0">
                    <mxGeometry x="353" y="310" width="60" height="80" as="geometry"/>
                </mxCell>
                <mxCell id="uEstjAPKd8-T_Io90Rg8-28" value="" style="shape=image;verticalLabelPosition=bottom;labelBackgroundColor=#ffffff;verticalAlign=top;aspect=fixed;imageAspect=0;image=data:image/svg+xml,PHN2ZyBhcmlhLWhpZGRlbj0idHJ1ZSIgZm9jdXNhYmxlPSJmYWxzZSIgZGF0YS1wcmVmaXg9ImZhcyIgZGF0YS1pY29uPSJ1bWJyZWxsYSIgY2xhc3M9InN2Zy1pbmxpbmUtLWZhIGZhLXVtYnJlbGxhIGZhLXctMTgiIHJvbGU9ImltZyIgeG1sbnM9Imh0dHA6Ly93d3cudzMub3JnLzIwMDAvc3ZnIiB2aWV3Qm94PSIwIDAgNTc2IDUxMiI+PHBhdGggZmlsbD0iY3VycmVudENvbG9yIiBkPSJNNTc1LjcgMjgwLjhDNTQ3LjEgMTQ0LjUgNDM3LjMgNjIuNiAzMjAgNDkuOVYzMmMwLTE3LjctMTQuMy0zMi0zMi0zMnMtMzIgMTQuMy0zMiAzMnYxNy45QzEzOC4zIDYyLjYgMjkuNSAxNDQuNS4zIDI4MC44Yy0yLjIgMTAuMSA4LjUgMjEuMyAxOC43IDExLjQgNTItNTUgMTA3LjctNTIuNCAxNTguNiAzNyA1LjMgOS41IDE0LjkgOC42IDE5LjcgMCAyMC4yLTM1LjQgNDQuOS03My4yIDkwLjctNzMuMiA1OC41IDAgODguMiA2OC44IDkwLjcgNzMuMiA0LjggOC42IDE0LjQgOS41IDE5LjcgMCA1MS04OS41IDEwNy4xLTkxLjQgMTU4LjYtMzcgMTAuMyAxMCAyMC45LTEuMyAxOC43LTExLjR6TTI1NiAzMDEuN1Y0MzJjMCA4LjgtNy4yIDE2LTE2IDE2LTcuOCAwLTEzLjItNS4zLTE1LjEtMTAuNy01LjktMTYuNy0yNC4xLTI1LjQtNDAuOC0xOS41LTE2LjcgNS45LTI1LjQgMjQuMi0xOS41IDQwLjggMTEuMiAzMS45IDQxLjYgNTMuMyA3NS40IDUzLjMgNDQuMSAwIDgwLTM1LjkgODAtODBWMzAxLjZjLTkuMS03LjktMTkuOC0xMy42LTMyLTEzLjYtMTIuMy4xLTIyLjQgNC44LTMyIDEzLjd6Ii8+PC9zdmc+;" parent="uEstjAPKd8-T_Io90Rg8-60" vertex="1">
                    <mxGeometry x="1.8600000000000136" width="56.28" height="50" as="geometry"/>
                </mxCell>
                <mxCell id="uEstjAPKd8-T_Io90Rg8-45" value="傘架上的QRCode" style="text;html=1;strokeColor=none;fillColor=none;align=center;verticalAlign=middle;whiteSpace=wrap;rounded=0;" parent="uEstjAPKd8-T_Io90Rg8-60" vertex="1">
                    <mxGeometry y="59" width="60" height="30" as="geometry"/>
                </mxCell>
            </root>
        </mxGraphModel>
    </diagram>
</mxfile>